<?xml version="1.0" encoding="UTF-8" standalone="no"?>
<svg xmlns:dc="http://purl.org/dc/elements/1.1/" xmlns:cc="http://creativecommons.org/ns#" xmlns:rdf="http://www.w3.org/1999/02/22-rdf-syntax-ns#" xmlns:svg="http://www.w3.org/2000/svg" xmlns="http://www.w3.org/2000/svg" version="1.1" id="svg5849" viewBox="0 0 193.23709 30.649101" height="8.6498575mm" width="54.535805mm">
  <defs id="defs5851"/>
  
  <g transform="translate(1528.6802,-2308.7268)" id="layer1">
    <path id="path4417" d="m -1507.7606,2312.617 -3.6885,12.8921 h -0.3664 l -3.9327,-12.8921 c -0.3638,-1.2561 -0.8099,-1.6623 -2.066,-1.6623 h -10.866 v 28.3814 h 7.9876 v -17.1914 h 0.4036 l 5.1091,15.5689 c 0.3664,1.1764 0.7701,1.6225 1.8243,1.6225 h 2.921 c 1.0515,0 1.418,-0.4063 1.8243,-1.6225 l 5.1064,-15.5689 h 0.4063 v 17.1914 h 8.2292 v -28.3814 h -10.8236 c -1.256,0 -1.7022,0.4062 -2.0686,1.6623" style="display:inline;fill:#515459;fill-opacity:1;fill-rule:nonzero;stroke:none"/>
    <path id="path4419" d="m -1476.7741,2333.1329 c -1.9863,0.9719 -2.7963,1.0543 -3.731,1.0543 h -0.3638 c -0.6479,0 -1.1339,-0.082 -1.4604,-0.4063 -0.324,-0.324 -0.4037,-0.8099 -0.4037,-1.5004 0,-0.608 0.04,-1.094 0.4461,-1.5003 0.4037,-0.4036 1.0117,-0.5258 2.9981,-0.5258 h 2.5147 z m 2.2306,-17.2524 h -9.488 c -2.1881,0 -3.3645,0.3638 -4.2965,1.2985 -0.9746,0.9719 -1.3383,2.2704 -1.3782,6.2828 h 7.5786 c 0.043,-1.0144 0.082,-1.2162 0.3665,-1.5003 0.2443,-0.2416 0.648,-0.324 1.3384,-0.324 h 1.9464 c 0.6878,0 1.094,0.082 1.3357,0.324 0.2841,0.2841 0.3665,0.5682 0.3665,2.3527 v 2.3315 c -2.4324,-0.4461 -4.9472,-0.6904 -7.0555,-0.6904 -2.6741,0 -4.2966,0.3267 -5.3906,1.4207 -1.0542,1.0542 -1.4207,2.7563 -1.4207,5.6747 0,3.083 0.5284,4.4212 1.2985,5.1913 0.8923,0.8923 1.9464,1.1339 3.9327,1.1339 h 2.7165 c 2.0261,0 3.2026,-0.2841 5.9191,-2.4324 v 2.3926 h 8.1893 v -16.1159 c 0,-3.6513 -0.4063,-4.9471 -1.3781,-6.0014 -0.932,-0.9745 -2.5546,-1.3383 -4.5806,-1.3383" style="display:inline;fill:#515459;fill-opacity:1;fill-rule:nonzero;stroke:none"/>
    <path id="path4421" d="m -1448.6848,2315.8805 -6.081,9.3472 h -1.0515 v -16.5009 h -8.232 v 30.6093 h 8.232 v -8.3939 h 1.094 l 5.1489,8.3939 h 9.3233 l -7.6212,-11.9203 7.7009,-11.5353 z m 0,0" style="display:inline;fill:#515459;fill-opacity:1;fill-rule:nonzero;stroke:none"/>
    <path id="path4423" d="m -1431.4005,2324.4125 c 0.1275,-2.2359 0.3904,-2.6289 0.563,-2.8015 0.1992,-0.2018 0.5337,-0.2682 1.5402,-0.2682 h 3.6591 c 1.0038,0 1.3384,0.066 1.5402,0.2682 0.1806,0.1805 0.4196,0.5576 0.5364,2.8015 z m 14.6077,0.7488 c -0.069,-4.724 -0.6373,-6.7688 -1.811,-7.9398 -0.9029,-0.9055 -2.143,-1.341 -4.5887,-1.341 h -8.5187 c -2.4456,0 -3.7176,0.4355 -4.6231,1.341 -1.3729,1.3383 -2.5466,3.9194 -2.5466,10.3855 0,6.4687 1.1737,9.0471 2.5466,10.3881 0.9055,0.9055 2.1775,1.341 4.6231,1.341 h 8.5187 c 2.4457,0 3.6858,-0.4355 4.5887,-1.341 1.086,-1.0569 1.6277,-2.8466 1.7764,-6.6865 h -6.7687 c -0.1248,1.8031 -0.3372,2.1324 -0.5019,2.2971 -0.2018,0.2017 -0.5364,0.2681 -1.5402,0.2681 h -3.6591 c -1.0065,0 -1.341,-0.066 -1.5402,-0.2681 -0.2177,-0.2152 -0.5762,-0.7489 -0.6293,-4.8728 h 14.674 z m 0,0" style="display:inline;fill:#515459;fill-opacity:1;fill-rule:nonzero;stroke:none"/>
    <path id="path4425" d="m -1378.8571,2317.5641 h 3.6088 c 1.2162,0 1.6225,0.08 1.8668,0.324 0.2416,0.2442 0.5656,0.77 0.6877,4.2991 h 8.1496 c -0.08,-5.7172 -0.77,-8.1921 -2.1907,-9.6101 -1.0941,-1.094 -2.5944,-1.6224 -5.5526,-1.6224 h -9.4879 c -2.9582,0 -4.501,0.5284 -5.5951,1.6224 -1.6622,1.6225 -3.0803,4.7426 -3.0803,12.5682 0,7.8257 1.4181,10.9458 3.0803,12.5683 1.0941,1.0941 2.6369,1.6225 5.5951,1.6225 h 9.4879 c 2.9582,0 4.4585,-0.5284 5.5526,-1.6225 1.4605,-1.418 2.1111,-3.9327 2.1907,-9.7296 h -8.1496 c -0.1221,3.6486 -0.4461,4.1744 -0.6877,4.4187 -0.2443,0.2443 -0.6506,0.324 -1.8668,0.324 h -3.6088 c -1.2161,0 -1.6198,-0.08 -1.8641,-0.324 -0.2841,-0.2841 -0.7701,-1.0144 -0.7701,-7.2574 0,-6.2031 0.486,-6.9732 0.7701,-7.2572 0.2443,-0.2444 0.648,-0.324 1.8641,-0.324" style="display:inline;fill:#ff4235;fill-opacity:1;fill-rule:nonzero;stroke:none"/>
    <path id="path4427" d="m -1360.9859,2310.9547 v 6.6492 h 8.3116 v 21.7322 h 8.7178 v -21.7322 h 8.5134 v -6.6492 z m 0,0" style="display:inline;fill:#ff4235;fill-opacity:1;fill-rule:nonzero;stroke:none"/>
    <path id="path4429" d="m -1412.106,2317.5946 h 4.1558 v 15.1016 h -4.1558 v 6.6399 h 17.0294 v -6.6399 h -4.1584 v -15.1016 h 4.1584 v -6.6399 h -17.0294 z m 0,0" style="display:inline;fill:#ff4235;fill-opacity:1;fill-rule:nonzero;stroke:none"/>
  </g>
</svg>
